<svg width="0" height="0" class="hidden">
  <symbol xmlns="http://www.w3.org/2000/svg" viewBox="0 0 479.058 479.058" id="envelope">
    <path d="M434.146 59.882H44.912C20.146 59.882 0 80.028 0 104.794v269.47c0 24.766 20.146 44.912 44.912 44.912h389.234c24.766 0 44.912-20.146 44.912-44.912v-269.47c0-24.766-20.146-44.912-44.912-44.912zm0 29.941c2.034 0 3.969.422 5.738 1.159L239.529 264.631 39.173 90.982a14.902 14.902 0 015.738-1.159zm0 299.411H44.912c-8.26 0-14.971-6.71-14.971-14.971V122.615l199.778 173.141c2.822 2.441 6.316 3.655 9.81 3.655s6.988-1.213 9.81-3.655l199.778-173.141v251.649c-.001 8.26-6.711 14.97-14.971 14.97z"></path>
  </symbol>
  <symbol xmlns="http://www.w3.org/2000/svg" viewBox="0 0 24 24" id="facebook">
    <path d="M15.997 3.985h2.191V.169C17.81.117 16.51 0 14.996 0c-3.159 0-5.323 1.987-5.323 5.639V9H6.187v4.266h3.486V24h4.274V13.267h3.345l.531-4.266h-3.877V6.062c.001-1.233.333-2.077 2.051-2.077z"></path>
  </symbol>
  <symbol xmlns="http://www.w3.org/2000/svg" viewBox="0 0 511 511.9" id="instagram">
    <path d="M510.95 150.5c-1.2-27.2-5.598-45.898-11.9-62.102-6.5-17.199-16.5-32.597-29.6-45.398-12.802-13-28.302-23.102-45.302-29.5-16.296-6.3-34.898-10.7-62.097-11.898C334.648.3 325.949 0 256.449 0s-78.199.3-105.5 1.5c-27.199 1.2-45.898 5.602-62.097 11.898-17.204 6.5-32.602 16.5-45.403 29.602-13 12.8-23.097 28.3-29.5 45.3-6.3 16.302-10.699 34.9-11.898 62.098C.75 177.801.449 186.5.449 256s.301 78.2 1.5 105.5c1.2 27.2 5.602 45.898 11.903 62.102 6.5 17.199 16.597 32.597 29.597 45.398 12.801 13 28.301 23.102 45.301 29.5 16.3 6.3 34.898 10.7 62.102 11.898 27.296 1.204 36 1.5 105.5 1.5s78.199-.296 105.5-1.5c27.199-1.199 45.898-5.597 62.097-11.898a130.934 130.934 0 0074.903-74.898c6.296-16.301 10.699-34.903 11.898-62.102 1.2-27.3 1.5-36 1.5-105.5s-.102-78.2-1.3-105.5zm-46.098 209c-1.102 25-5.301 38.5-8.801 47.5-8.602 22.3-26.301 40-48.602 48.602-9 3.5-22.597 7.699-47.5 8.796-27 1.204-35.097 1.5-103.398 1.5s-76.5-.296-103.403-1.5c-25-1.097-38.5-5.296-47.5-8.796C94.551 451.5 84.45 445 76.25 436.5c-8.5-8.3-15-18.3-19.102-29.398-3.5-9-7.699-22.602-8.796-47.5-1.204-27-1.5-35.102-1.5-103.403s.296-76.5 1.5-103.398c1.097-25 5.296-38.5 8.796-47.5C61.25 94.199 67.75 84.1 76.352 75.898c8.296-8.5 18.296-15 29.398-19.097 9-3.5 22.602-7.7 47.5-8.801 27-1.2 35.102-1.5 103.398-1.5 68.403 0 76.5.3 103.403 1.5 25 1.102 38.5 5.3 47.5 8.8 11.097 4.098 21.199 10.598 29.398 19.098 8.5 8.301 15 18.301 19.102 29.403 3.5 9 7.699 22.597 8.8 47.5 1.2 27 1.5 35.097 1.5 103.398s-.3 76.301-1.5 103.301zm0 0"></path>
    <path d="M256.45 124.5c-72.598 0-131.5 58.898-131.5 131.5s58.902 131.5 131.5 131.5c72.6 0 131.5-58.898 131.5-131.5s-58.9-131.5-131.5-131.5zm0 216.8c-47.098 0-85.302-38.198-85.302-85.3s38.204-85.3 85.301-85.3c47.102 0 85.301 38.198 85.301 85.3s-38.2 85.3-85.3 85.3zm167.402-222c0 16.954-13.747 30.7-30.704 30.7-16.953 0-30.699-13.746-30.699-30.7 0-16.956 13.746-30.698 30.7-30.698 16.956 0 30.703 13.742 30.703 30.699zm0 0"></path>
  </symbol>
  <symbol xmlns="http://www.w3.org/2000/svg" viewBox="0 0 32 32" id="logo">
    <path d="M15.5 0C6.939 0 0 6.939 0 15.5S6.939 31 15.5 31 31 24.061 31 15.5 24.061 0 15.5 0zm13.475 15h-5.996c-.055-2.215-.449-4.331-1.148-6.268a16.334 16.334 0 003.736-2.197A13.433 13.433 0 0128.975 15zM14.947 28.972c-1.662-1.384-3.056-3.181-4.076-5.268A15.497 15.497 0 0115 23.025v5.949l-.053-.002zm1.104-26.944c1.886 1.57 3.425 3.673 4.466 6.126-1.426.487-2.941.77-4.518.82V2.025l.052.003zm1.666.17a13.463 13.463 0 017.164 3.614 15.297 15.297 0 01-3.428 1.998c-.91-2.157-2.187-4.064-3.736-5.612zM15 2.025v6.949a15.492 15.492 0 01-4.518-.82c1.041-2.453 2.58-4.556 4.466-6.126L15 2.025zM9.546 7.811a15.335 15.335 0 01-3.427-1.998 13.46 13.46 0 017.164-3.614c-1.55 1.547-2.826 3.454-3.737 5.612zm.559 1.265c1.542.535 3.185.847 4.895.899V15H9.021c.054-2.094.425-4.095 1.084-5.924zM15 16v6.025a16.411 16.411 0 00-4.539.769A18.785 18.785 0 019.021 16H15zm-1.717 12.802a13.431 13.431 0 01-6.545-3.052 15.199 15.199 0 013.188-1.7 17.317 17.317 0 003.357 4.752zm2.717.173v-5.949c1.432.046 2.82.27 4.129.679-1.021 2.087-2.414 3.884-4.076 5.268a.975.975 0 00-.053.002zm5.074-4.925a15.32 15.32 0 013.188 1.7 13.44 13.44 0 01-6.545 3.052 17.338 17.338 0 003.357-4.752zm-.535-1.256A16.424 16.424 0 0016 22.025V16h5.979a18.806 18.806 0 01-1.44 6.794zM16 15V9.975a16.44 16.44 0 004.895-.898c.658 1.829 1.029 3.83 1.084 5.924H16zM5.434 6.535a16.35 16.35 0 003.735 2.197C8.47 10.669 8.076 12.785 8.021 15H2.025a13.429 13.429 0 013.409-8.465zM2.025 16h5.996a19.724 19.724 0 001.503 7.137 16.23 16.23 0 00-3.538 1.931A13.463 13.463 0 012.025 16zm22.989 9.067a16.256 16.256 0 00-3.539-1.931 19.725 19.725 0 001.504-7.137h5.996a13.464 13.464 0 01-3.961 9.068z"></path>
  </symbol>
  <symbol xmlns="http://www.w3.org/2000/svg" viewBox="0 0 512.005 512.005" id="loupe">
    <path d="M505.749 475.587l-145.6-145.6c28.203-34.837 45.184-79.104 45.184-127.317C405.333 90.926 314.41.003 202.666.003S0 90.925 0 202.669s90.923 202.667 202.667 202.667c48.213 0 92.48-16.981 127.317-45.184l145.6 145.6c4.16 4.16 9.621 6.251 15.083 6.251s10.923-2.091 15.083-6.251c8.341-8.341 8.341-21.824-.001-30.165zM202.667 362.669c-88.235 0-160-71.765-160-160s71.765-160 160-160 160 71.765 160 160-71.766 160-160 160z"></path>
  </symbol>
  <symbol xmlns="http://www.w3.org/2000/svg" viewBox="0 0 513.64 513.64" id="phone">
    <path d="M499.66 376.96l-71.68-71.68c-25.6-25.6-69.12-15.359-79.36 17.92-7.68 23.041-33.28 35.841-56.32 30.72-51.2-12.8-120.32-79.36-133.12-133.12-7.68-23.041 7.68-48.641 30.72-56.32 33.28-10.24 43.52-53.76 17.92-79.36l-71.68-71.68c-20.48-17.92-51.2-17.92-69.12 0L18.38 62.08c-48.64 51.2 5.12 186.88 125.44 307.2s256 176.641 307.2 125.44l48.64-48.64c17.921-20.48 17.921-51.2 0-69.12z"></path>
  </symbol>
  <symbol xmlns="http://www.w3.org/2000/svg" viewBox="0 0 500 360" id="sun">
    <path d="M173.573 97.768l-21.88-22.12a7.28 7.28 0 10-10.32 10.2l21.88 22.12a7.28 7.28 0 0010.32-10.2zm185.512-20.975a7.28 7.28 0 00-11.112-.065l-22.12 21.88a7.28 7.28 0 1010.2 10.32l22.12-21.88a7.28 7.28 0 00.912-10.255zm-131.829-4.557a7.146 7.146 0 00-.163-.628l-8-30.08a7.241 7.241 0 10-14.001 3.64l8 30.08a7.241 7.241 0 0014.164-3.012zm99.477 154.892a101.162 101.162 0 00-4.24-4l1.2-2.16a84.05 84.05 0 004-8.44c17.039-42.555-3.646-90.866-46.201-107.905l-.239-.095c-38.472-15.335-82.362.024-102.88 36-50.15-14.006-102.159 15.294-116.166 65.445a94.234 94.234 0 00-3.474 25.635v3.76C23.916 237.837-2.308 268.063.161 302.88c2.333 32.907 29.584 58.483 62.572 58.728h208.2c43.498.075 78.821-35.125 78.897-78.623a78.763 78.763 0 00-23.097-55.857zm-101.44-109.08a68.359 68.359 0 0150.52 0c35.167 14.031 52.331 53.889 38.36 89.08a69.394 69.394 0 01-3.44 7.08v.64a78.84 78.84 0 00-66.16-6.08 94.154 94.154 0 00-23.84-42.76c8.089-15.018 26.11-21.643 42-15.44a7.24 7.24 0 005.32-13.44c-21.575-8.645-46.243-.591-58.56 19.12a94.49 94.49 0 00-17.56-10.44 68.403 68.403 0 0133.36-27.76zm60.835 227.241a64.28 64.28 0 01-15.115 1.76h-208c-26.885-.024-48.66-21.839-48.636-48.724a48.682 48.682 0 0114.236-34.356l-.08.04a48.52 48.52 0 0134.4-14.24h3.32a7.24 7.24 0 007.6-8.6 92.687 92.687 0 01-.4-4.52v-5.08c.593-44.046 36.78-79.272 80.827-78.679 38.703.521 71.445 28.754 77.653 66.959a7.24 7.24 0 0010.4 5.44 63.768 63.768 0 0113.92-5.04c34.529-8.25 69.208 13.054 77.458 47.583 8.25 34.528-13.054 69.207-47.583 77.457zm110.949-199.893a7.24 7.24 0 00-8.425-4.948l-30.08 8a7.24 7.24 0 00-5.2 8.8 7.24 7.24 0 008.84 5.2l30.08-8a7.238 7.238 0 004.785-9.052zm-5.104 70.772l-30-8.2a7.26 7.26 0 10-4 13.96l30 8.2a7.26 7.26 0 104-13.96zm-102.22-179.5a7.26 7.26 0 00-8.98 4.98l-8.2 30a7.24 7.24 0 005.12 9.08 7.24 7.24 0 009.04-5.08l8-30a7.261 7.261 0 00-4.98-8.98z"></path>
  </symbol>
  <symbol xmlns="http://www.w3.org/2000/svg" viewBox="0 0 512 512" id="twitter">
    <path d="M512 97.248c-19.04 8.352-39.328 13.888-60.48 16.576 21.76-12.992 38.368-33.408 46.176-58.016-20.288 12.096-42.688 20.64-66.56 25.408C411.872 60.704 384.416 48 354.464 48c-58.112 0-104.896 47.168-104.896 104.992 0 8.32.704 16.32 2.432 23.936-87.264-4.256-164.48-46.08-216.352-109.792-9.056 15.712-14.368 33.696-14.368 53.056 0 36.352 18.72 68.576 46.624 87.232-16.864-.32-33.408-5.216-47.424-12.928v1.152c0 51.008 36.384 93.376 84.096 103.136-8.544 2.336-17.856 3.456-27.52 3.456-6.72 0-13.504-.384-19.872-1.792 13.6 41.568 52.192 72.128 98.08 73.12-35.712 27.936-81.056 44.768-130.144 44.768-8.608 0-16.864-.384-25.12-1.44C46.496 446.88 101.6 464 161.024 464c193.152 0 298.752-160 298.752-298.688 0-4.64-.16-9.12-.384-13.568 20.832-14.784 38.336-33.248 52.608-54.496z"></path>
  </symbol>
  <symbol xmlns="http://www.w3.org/2000/svg" viewBox="0 0 24 24" id="vk">
    <path xmlns="http://www.w3.org/2000/svg" d="M19.915 13.028c-.388-.49-.277-.708 0-1.146.005-.005 3.208-4.431 3.538-5.932l.002-.001c.164-.547 0-.949-.793-.949h-2.624c-.668 0-.976.345-1.141.731 0 0-1.336 3.198-3.226 5.271-.61.599-.892.791-1.225.791-.164 0-.419-.192-.419-.739V5.949c0-.656-.187-.949-.74-.949H9.161c-.419 0-.668.306-.668.591 0 .622.945.765 1.043 2.515v3.797c0 .832-.151.985-.486.985-.892 0-3.057-3.211-4.34-6.886-.259-.713-.512-1.001-1.185-1.001H.9c-.749 0-.9.345-.9.731 0 .682.892 4.073 4.148 8.553C6.318 17.343 9.374 19 12.154 19c1.671 0 1.875-.368 1.875-1.001 0-2.922-.151-3.198.686-3.198.388 0 1.056.192 2.616 1.667C19.114 18.217 19.407 19 20.405 19h2.624c.748 0 1.127-.368.909-1.094-.499-1.527-3.871-4.668-4.023-4.878z" data-original="#000000"></path>
  </symbol>
  <symbol xmlns="http://www.w3.org/2000/svg" viewBox="0 0 451.847 451.847" id="arrow-down">
    <path d="M225.923 354.706c-8.098 0-16.195-3.092-22.369-9.263L9.27 151.157c-12.359-12.359-12.359-32.397 0-44.751 12.354-12.354 32.388-12.354 44.748 0l171.905 171.915 171.906-171.909c12.359-12.354 32.391-12.354 44.744 0 12.365 12.354 12.365 32.392 0 44.751L248.292 345.449c-6.177 6.172-14.274 9.257-22.369 9.257z"></path>
  </symbol>
  <symbol xmlns="http://www.w3.org/2000/svg" viewBox="0 0 512 512" id="clocks">
    <path d="M347.216 301.211l-71.387-53.54V138.609c0-10.966-8.864-19.83-19.83-19.83-10.966 0-19.83 8.864-19.83 19.83v118.978c0 6.246 2.935 12.136 7.932 15.864l79.318 59.489a19.713 19.713 0 0011.878 3.966c6.048 0 11.997-2.717 15.884-7.952 6.585-8.746 4.8-21.179-3.965-27.743z"></path>
    <path d="M256 0C114.833 0 0 114.833 0 256s114.833 256 256 256 256-114.833 256-256S397.167 0 256 0zm0 472.341c-119.275 0-216.341-97.066-216.341-216.341S136.725 39.659 256 39.659c119.295 0 216.341 97.066 216.341 216.341S375.275 472.341 256 472.341z"></path>
  </symbol>
  <symbol xmlns="http://www.w3.org/2000/svg" viewBox="0 0 60 60" id="comments">
    <path xmlns="http://www.w3.org/2000/svg" d="M30 1.5c-16.542 0-30 12.112-30 27 0 5.204 1.646 10.245 4.768 14.604-.591 6.537-2.175 11.39-4.475 13.689a1 1 0 00.846 1.697c.405-.057 9.813-1.411 16.618-5.339C21.621 54.71 25.737 55.5 30 55.5c16.542 0 30-12.112 30-27s-13.458-27-30-27zm-14 31c-2.206 0-4-1.794-4-4s1.794-4 4-4 4 1.794 4 4-1.794 4-4 4zm14 0c-2.206 0-4-1.794-4-4s1.794-4 4-4 4 1.794 4 4-1.794 4-4 4zm14 0c-2.206 0-4-1.794-4-4s1.794-4 4-4 4 1.794 4 4-1.794 4-4 4z" data-original="#000000"></path>
  </symbol>
  <symbol xmlns="http://www.w3.org/2000/svg" viewBox="0 0 512 512" id="certificate">
    <g xmlns="http://www.w3.org/2000/svg">
      <path d="M7.5 418.175V52.436c0-5.523 4.477-10 10-10h477c5.523 0 10 4.477 10 10v365.739c0 5.523-4.477 10-10 10h-477c-5.523 0-10-4.477-10-10z" fill="#0c0" data-original="#fed23a"></path>
      <path d="M38.179 397.569h435.642V73.041H38.179z" fill="#fff9e9" data-original="#fff9e9"></path>
      <path d="M433.821 73.041h40v324.528h-40z" fill="#fff4d6" data-original="#fff4d6"></path>
      <path d="M390.888 469.625l-21.5-10-21.5 10v-129h43z" fill="#f7e800" data-original="#ffabe7"></path>
      <path d="M369.388 365.562c-7.587 0-12.555-12.914-19.152-15.655-6.839-2.841-19.443 2.664-24.597-2.5-5.154-5.163.341-17.79-2.495-24.641-2.736-6.609-15.626-11.586-15.626-19.187 0-7.6 12.89-12.577 15.626-19.187 2.836-6.851-2.659-19.478 2.495-24.641s17.758.342 24.596-2.499c6.597-2.741 11.565-15.655 19.152-15.655s12.555 12.914 19.152 15.655c6.839 2.841 19.443-2.664 24.597 2.5 5.154 5.163-.341 17.79 2.495 24.641 2.736 6.609 15.626 11.586 15.626 19.187 0 7.6-12.89 12.577-15.626 19.187-2.836 6.851 2.659 19.478-2.495 24.641s-17.758-.342-24.596 2.499c-6.597 2.741-11.565 15.655-19.152 15.655z" fill="#fff784" data-original="#ff6ed4"></path>
      <path d="M415.631 284.393c-2.836-6.851 2.659-19.478-2.495-24.641s-17.758.341-24.597-2.5c-6.597-2.741-11.565-15.655-19.152-15.655s-12.555 12.914-19.152 15.655a9.217 9.217 0 01-.848.297c6.987 2.118 18.8-2.755 23.748 2.203 5.154 5.163-.341 17.79 2.495 24.641 2.736 6.609 15.626 11.586 15.626 19.187s-12.89 12.578-15.626 19.187c-2.836 6.851 2.659 19.478-2.495 24.641-4.948 4.957-16.761.085-23.748 2.203.29.088.575.184.848.297 6.597 2.741 11.565 15.655 19.152 15.655s12.554-12.914 19.152-15.655c6.839-2.841 19.443 2.664 24.596-2.5 5.154-5.163-.341-17.79 2.495-24.641 2.736-6.609 15.626-11.586 15.626-19.187.001-7.6-12.889-12.577-15.625-19.187z" fill="#fff784" data-original="#ff5ccf"></path>
      <circle cx="369.388" cy="303.58" fill="#f7e800" r="21.794" data-original="#ffabe7"></circle>
      <path d="M494.5 34.936h-477c-9.649 0-17.5 7.851-17.5 17.5v61.595c0 9.697 15 9.697 15 0V52.436c0-1.378 1.121-2.5 2.5-2.5h477c1.379 0 2.5 1.122 2.5 2.5v365.739c0 1.378-1.121 2.5-2.5 2.5h-96.112v-15.606h75.434a7.5 7.5 0 007.5-7.5V319.03c0-9.697-15-9.697-15 0v71.039h-67.934v-33.277l.721.063c6.226.547 13.97 1.228 19.335-4.147 5.359-5.369 4.681-13.121 4.136-19.35-.587-6.685.045-8.515 5.183-12.786 13.229-11 13.475-22.778 0-33.98-5.138-4.274-5.767-6.102-5.183-12.788 1.468-16.777-6.368-24.999-23.471-23.496-6.675.586-8.486-.048-12.742-5.187-10.983-13.26-22.769-13.505-33.956 0-4.256 5.138-6.066 5.775-12.741 5.187-16.789-1.475-24.97 6.405-23.472 23.496.584 6.687-.045 8.514-5.183 12.788-13.229 10.999-13.474 22.779 0 33.98 5.138 4.274 5.767 6.102 5.183 12.788-1.575 17.969 7.007 24.917 24.19 23.433v33.278H45.679V80.541h420.643V279.03c0 9.697 15 9.697 15 0V73.041a7.5 7.5 0 00-7.5-7.5H38.179a7.5 7.5 0 00-7.5 7.5v324.528a7.5 7.5 0 007.5 7.5h302.209v15.606H17.5a2.503 2.503 0 01-2.5-2.5V152.03c0-9.697-15-9.697-15 0v266.145c0 9.649 7.851 17.5 17.5 17.5h322.888v33.95c1.068 6.164 4.623 8.431 10.663 6.8l18.337-8.529 18.337 8.529c4.537 2.11 10.663-1.225 10.663-6.8v-33.95H494.5c9.649 0 17.5-7.851 17.5-17.5V52.436c0-9.65-7.851-17.5-17.5-17.5zM338.355 341.911c-7.508.661-7.872.259-7.216-7.245 1.008-11.517-1.641-18.237-10.536-25.631-6.086-5.061-6.085-5.85 0-10.911 8.895-7.394 11.545-14.114 10.536-25.63-.656-7.505-.292-7.903 7.216-7.246 11.518 1.015 18.229-1.654 25.606-10.561 5.041-6.084 5.812-6.084 10.853 0 7.379 8.907 14.088 11.572 25.606 10.561 7.509-.661 7.872-.259 7.216 7.245-1.008 11.517 1.641 18.236 10.536 25.63 6.085 5.061 6.088 5.852-.001 10.912-8.895 7.395-11.545 14.112-10.536 25.629.659 7.504.293 7.907-7.214 7.247-4.711-.414-10.055-.884-14.759 1.07-4.553 1.891-7.754 5.754-10.849 9.491-1.458 1.76-4.119 4.973-5.427 5.548-1.307-.575-3.968-3.788-5.426-5.548-3.095-3.736-6.295-7.6-10.849-9.491-4.854-1.48-9.773-1.837-14.756-1.07zm34.196 110.914a7.499 7.499 0 00-6.326 0l-10.837 5.041v-92.349c3.559 3.913 7.95 7.546 14 7.546s10.441-3.632 14-7.545v92.348z" data-original="#060606"></path>
      <path d="M97.263 143.321H355.81c9.697 0 9.697-15 0-15H97.263c-9.698 0-9.698 15 0 15zm324.974 38.118a7.5 7.5 0 00-7.5-7.5H97.263c-9.697 0-9.697 15 0 15h317.475a7.5 7.5 0 007.499-7.5zm-137.1 45.617a7.5 7.5 0 00-7.5-7.5H97.263c-9.697 0-9.697 15 0 15h180.374a7.5 7.5 0 007.5-7.5zm-98.486 104.542c-4.089.007-8.179.012-12.268.015-7.867.006-12.198-2.091-13.805-10.433-1.467-7.615-12.451-6.645-14.464 0-.891 2.943-5.391 11.368-9.322 10.679-2.083-.365-2.993-3.578-3.763-5.242-1.499-3.239-2.591-6.672-3.526-10.112-3.948-14.534-4.736-29.709-7.206-44.517-1.432-8.587-14.521-6.159-14.732 1.994-.672 25.971-4.918 51.586-14.164 75.929-3.431 9.033 11.064 12.939 14.464 3.988 3.565-9.386 6.395-18.997 8.591-28.751 1.178 3.554 2.583 7.04 4.298 10.431 4.38 8.656 13.313 13.777 22.871 9.927 3.411-1.374 6.523-3.776 9.172-6.699 7.096 8.183 17.653 7.812 27.502 7.8 14.847-.019 29.694-.054 44.542-.095 9.651-.027 9.669-15.027 0-15-12.73.036-25.46.065-38.19.086zm182.737 1.276c16.153 0 29.295-13.141 29.295-29.294s-13.142-29.294-29.295-29.294c-16.152 0-29.294 13.142-29.294 29.294s13.141 29.294 29.294 29.294zm0-43.588c7.882 0 14.295 6.413 14.295 14.294s-6.413 14.294-14.295 14.294-14.294-6.412-14.294-14.294 6.412-14.294 14.294-14.294z" data-original="#060606"></path>
    </g>
  </symbol>
  <symbol xmlns="http://www.w3.org/2000/svg" viewBox="0 0 511.997 511.997" id="psychologist">
    <g xmlns="http://www.w3.org/2000/svg">
      <path d="M343.404 264.448V171.17c0-84.067-67.907-152.216-151.675-152.216-83.768 0-151.675 68.149-151.675 152.216v93.278C22.439 271.544 10 288.843 10 309.058c0 26.539 21.438 48.052 47.882 48.052h211.714" fill="#1e1c12" data-original="#fff2a0"></path>
      <path d="M220.587 143.55a205.248 205.248 0 01-14.634-16.325c-26.167-32.584-77.343-28.29-97.389 8.406-7.403 13.552-11.613 29.111-11.613 45.657v40.305c0 45.159 31.359 82.967 73.415 92.689v42.828h42.724v-42.828c42.056-9.723 73.415-47.531 73.415-92.689v-35.984c-20.381-5.702-44.355-20.419-65.918-42.059z" fill="#e9e5a5" data-original="#ffdcd5"></path>
      <path d="M341.178 485.552v7.491H42.28v-84.857c0-28.208 22.867-51.075 51.075-51.075H271.05" fill="#0f0" data-original="#ccf5fc"></path>
      <path d="M191.729 493.043l-52.252-135.932h97.999z" fill="#faf7f5" data-original="#faf7f5"></path>
      <ellipse cx="386.525" cy="377.156" fill="#0c0" rx="115.475" ry="115.887" data-original="#ff9eb1"></ellipse>
      <path d="M157.137 216.441c-5.522 0-10-4.477-10-10v-7.745c0-5.523 4.478-10 10-10s10 4.477 10 10v7.745c0 5.522-4.478 10-10 10zm70.399 0c-5.522 0-10-4.477-10-10v-7.745c0-5.523 4.478-10 10-10s10 4.477 10 10v7.745c0 5.522-4.477 10-10 10zm-35.908 55.807c-8.376 0-16.247-3.272-22.166-9.211-3.898-3.912-3.887-10.244.025-14.142 3.915-3.898 10.245-3.886 14.143.026 2.138 2.146 4.979 3.328 7.998 3.328s5.859-1.182 7.997-3.328c3.899-3.913 10.23-3.923 14.143-.026 3.912 3.898 3.924 10.23.025 14.142-5.919 5.939-13.79 9.211-22.165 9.211z" data-original="#000000"></path>
      <path d="M496.81 413.05c-5.086-2.145-10.953.241-13.099 5.331-16.556 39.281-54.703 64.663-97.186 64.663-58.159 0-105.475-47.501-105.475-105.887S328.365 271.27 386.525 271.27c42.709 0 80.935 25.568 97.385 65.137 2.119 5.1 7.973 7.513 13.072 5.395 5.1-2.12 7.515-7.973 5.395-13.073-19.561-47.055-65.036-77.459-115.852-77.459-11.46 0-22.565 1.55-33.12 4.451v-84.55c0-89.446-72.527-162.216-161.676-162.216-89.147 0-161.674 72.77-161.674 162.216v86.963C11.596 268.237 0 287.552 0 309.058c0 28.929 21.207 52.983 48.847 57.346-10.269 10.932-16.567 25.635-16.567 41.782v84.858c0 5.523 4.478 10 10 10h298.897c3.871 0 7.228-2.2 8.89-5.418a124.722 124.722 0 0036.457 5.418c50.547 0 95.929-30.183 115.616-76.895 2.146-5.09-.242-10.954-5.33-13.099zM20 309.058c0-15.643 9.339-29.513 23.791-35.335a9.999 9.999 0 006.264-9.275V171.17c0-78.419 63.555-142.216 141.675-142.216S333.404 92.752 333.404 171.17v91.945c-33.932 15.974-59.619 46.754-68.743 83.995H223.09v-25.199c19.63-6.192 37.266-18.219 50.276-34.424 14.921-18.585 23.139-41.986 23.139-65.894v-35.984a9.999 9.999 0 00-7.306-9.63c-19.547-5.469-41.974-19.861-61.529-39.487a195.582 195.582 0 01-13.921-15.527c-14.442-17.984-36.826-27.503-59.85-25.461-22.905 2.028-43.134 15.237-54.112 35.335-8.397 15.372-12.836 32.818-12.836 50.451v40.305c0 23.908 8.218 47.309 23.139 65.894 13.011 16.205 30.647 28.231 50.276 34.423v25.199H57.882C36.994 347.11 20 330.04 20 309.058zm152.619-4.518c-38.664-8.938-65.667-43.046-65.667-82.946v-40.305c0-14.292 3.592-28.422 10.389-40.863 7.882-14.43 21.851-23.542 38.323-25 16.355-1.443 32.246 5.303 42.492 18.063a216.095 216.095 0 0015.347 17.121c19.601 19.67 42.167 34.759 63.003 42.285v28.7c0 39.899-27.003 74.008-65.667 82.946a10 10 0 00-7.748 9.743v32.828h-22.724v-32.828a10 10 0 00-7.748-9.744zm50.941 62.57l-32.455 96.438-37.07-96.438zM52.28 408.186c0-22.649 18.426-41.075 41.075-41.075h39.252l44.565 115.933H52.28zm153.366 74.858l39.015-115.933h16.785a127.481 127.481 0 00-.396 10.046c0 44.376 23.005 83.463 57.678 105.887z" data-original="#000000"></path>
      <path d="M511.81 375.198c-.848-4.11-4.231-7.335-8.389-7.94-4.169-.606-8.396 1.58-10.31 5.333-1.9 3.726-1.273 8.341 1.592 11.404 2.817 3.01 7.315 3.959 11.116 2.394 4.354-1.793 6.914-6.571 5.991-11.191zm-58.903-34.036c0-5.523-4.478-10-10-10-11.007 0-19.961 8.97-19.961 19.996v7.422c0 16.692-11.185 30.809-26.422 35.185v-43.979c4.157-1.213 7.194-5.052 7.194-9.6 0-5.523-4.478-10-10-10H379.33c-5.522 0-10 4.477-10 10 0 4.548 3.037 8.387 7.193 9.6v43.979c-15.236-4.376-26.421-18.493-26.421-35.185v-7.422c0-11.026-8.954-19.996-19.961-19.996-5.523 0-10.02 4.475-10.02 9.998s4.458 9.998 9.98 9.998v7.422c0 27.781 20.064 50.95 46.421 55.697v25.158c-4.156 1.213-7.193 5.052-7.193 9.6 0 5.523 4.478 10 10 10h14.388c5.522 0 10-4.477 10-10 0-4.549-3.038-8.387-7.194-9.6v-25.157c26.358-4.747 46.422-27.916 46.422-55.697l-.044-7.418h.005c5.524-.001 10.001-4.478 10.001-10.001z" data-original="#000000"></path>
    </g>
  </symbol>
  <symbol xmlns="http://www.w3.org/2000/svg" viewBox="0 0 451.847 451.847" id="arrow-down">
    <path d="M225.923 354.706c-8.098 0-16.195-3.092-22.369-9.263L9.27 151.157c-12.359-12.359-12.359-32.397 0-44.751 12.354-12.354 32.388-12.354 44.748 0l171.905 171.915 171.906-171.909c12.359-12.354 32.391-12.354 44.744 0 12.365 12.354 12.365 32.392 0 44.751L248.292 345.449c-6.177 6.172-14.274 9.257-22.369 9.257z"></path>
  </symbol>
</svg>